<svg width="1.2rem" height="1.2rem" viewBox="0 0 26 31" fill="none" xmlns="http://www.w3.org/2000/svg">
<path d="M25.3034 28.375H24.1429V1.65667C24.143 1.47198 24.107 1.28908 24.0371 1.11842C23.9672 0.947762 23.8646 0.792686 23.7353 0.662054C23.606 0.531422 23.4525 0.427794 23.2835 0.357093C23.1145 0.286391 22.9333 0.25 22.7504 0.25H3.25041C3.06742 0.249891 2.88619 0.2862 2.7171 0.356853C2.54801 0.427506 2.39438 0.531116 2.26498 0.661759C2.13558 0.792402 2.03296 0.947515 1.96298 1.11823C1.893 1.28894 1.85703 1.47191 1.85714 1.65667V28.375H0.696635C0.511876 28.375 0.334684 28.4491 0.20404 28.581C0.0733953 28.7129 0 28.8918 0 29.0783L0 30.25H26V29.0783C26 28.986 25.982 28.8945 25.947 28.8092C25.912 28.7238 25.8606 28.6463 25.796 28.581C25.7313 28.5157 25.6545 28.4639 25.57 28.4285C25.4854 28.3932 25.3948 28.375 25.3034 28.375ZM7.42857 4.70333C7.42857 4.5168 7.50197 4.3379 7.63261 4.206C7.76326 4.0741 7.94045 4 8.12521 4H10.447C10.6318 4 10.809 4.0741 10.9396 4.206C11.0703 4.3379 11.1437 4.5168 11.1437 4.70333V7.04667C11.1437 7.1391 11.1256 7.23063 11.0906 7.31601C11.0555 7.4014 11.0041 7.47897 10.9394 7.54429C10.8746 7.60961 10.7977 7.6614 10.7131 7.6967C10.6285 7.732 10.5378 7.75011 10.4462 7.75H8.12521C7.94045 7.75 7.76326 7.6759 7.63261 7.544C7.50197 7.4121 7.42857 7.2332 7.42857 7.04667V4.70333ZM7.42857 10.3283C7.42857 10.1418 7.50197 9.9629 7.63261 9.831C7.76326 9.6991 7.94045 9.625 8.12521 9.625H10.447C10.6318 9.625 10.809 9.6991 10.9396 9.831C11.0703 9.9629 11.1437 10.1418 11.1437 10.3283V12.6725C11.1437 12.859 11.0703 13.0379 10.9396 13.1698C10.809 13.3017 10.6318 13.3758 10.447 13.3758H8.12521C8.03365 13.3758 7.943 13.3576 7.85843 13.3222C7.77385 13.2868 7.69702 13.2349 7.63232 13.1695C7.56762 13.1041 7.51632 13.0265 7.48136 12.9411C7.4464 12.8556 7.42846 12.7641 7.42857 12.6717V10.3283ZM10.4462 19H8.12521C7.94045 19 7.76326 18.9259 7.63261 18.794C7.50197 18.6621 7.42857 18.4832 7.42857 18.2967V15.9533C7.42857 15.7668 7.50197 15.5879 7.63261 15.456C7.76326 15.3241 7.94045 15.25 8.12521 15.25H10.447C10.6318 15.25 10.809 15.3241 10.9396 15.456C11.0703 15.5879 11.1437 15.7668 11.1437 15.9533V18.2975C11.1436 18.3899 11.1254 18.4813 11.0903 18.5666C11.0552 18.6519 11.0038 18.7294 10.9391 18.7946C10.8743 18.8598 10.7974 18.9115 10.7129 18.9468C10.6283 18.982 10.5377 19.0001 10.4462 19ZM14.8571 28.375H11.1429V23.4533C11.1429 23.2668 11.2163 23.0879 11.3469 22.956C11.4775 22.8241 11.6547 22.75 11.8395 22.75H14.1613C14.3461 22.75 14.5233 22.8241 14.6539 22.956C14.7846 23.0879 14.858 23.2668 14.858 23.4533L14.8571 28.375ZM18.5714 18.2967C18.5714 18.4832 18.498 18.6621 18.3674 18.794C18.2367 18.9259 18.0596 19 17.8748 19H15.5538C15.369 19 15.1918 18.9259 15.0612 18.794C14.9305 18.6621 14.8571 18.4832 14.8571 18.2967V15.9533C14.8571 15.7668 14.9305 15.5879 15.0612 15.456C15.1918 15.3241 15.369 15.25 15.5538 15.25H17.8756C17.9671 15.25 18.0577 15.2682 18.1422 15.3035C18.2267 15.3389 18.3035 15.3907 18.3682 15.456C18.4329 15.5213 18.4842 15.5988 18.5192 15.6842C18.5542 15.7695 18.5723 15.861 18.5723 15.9533L18.5714 18.2967ZM18.5714 12.6717C18.5714 12.8582 18.498 13.0371 18.3674 13.169C18.2367 13.3009 18.0596 13.375 17.8748 13.375H15.5538C15.369 13.375 15.1918 13.3009 15.0612 13.169C14.9305 13.0371 14.8571 12.8582 14.8571 12.6717V10.3283C14.8571 10.1418 14.9305 9.9629 15.0612 9.831C15.1918 9.6991 15.369 9.625 15.5538 9.625H17.8756C17.9671 9.625 18.0577 9.64319 18.1422 9.67854C18.2267 9.71388 18.3035 9.76569 18.3682 9.831C18.4329 9.89631 18.4842 9.97385 18.5192 10.0592C18.5542 10.1445 18.5723 10.236 18.5723 10.3283L18.5714 12.6717ZM18.5714 7.04667C18.5714 7.13903 18.5534 7.23049 18.5184 7.31582C18.4834 7.40115 18.4321 7.47869 18.3674 7.544C18.3027 7.60931 18.2259 7.66112 18.1414 7.69646C18.0569 7.73181 17.9663 7.75 17.8748 7.75H15.5538C15.369 7.75 15.1918 7.6759 15.0612 7.544C14.9305 7.4121 14.8571 7.2332 14.8571 7.04667V4.70333C14.8571 4.5168 14.9305 4.3379 15.0612 4.206C15.1918 4.0741 15.369 4 15.5538 4H17.8756C17.9671 4 18.0577 4.01819 18.1422 4.05354C18.2267 4.08888 18.3035 4.14069 18.3682 4.206C18.4329 4.27131 18.4842 4.34885 18.5192 4.43418C18.5542 4.51951 18.5723 4.61097 18.5723 4.70333L18.5714 7.04667Z" fill="#6B17FE"/>
</svg>
