<svg width="1.2rem" height="1.2rem"  viewBox="0 0 30 30" fill="none" xmlns="http://www.w3.org/2000/svg">
<path d="M12 21.6667V20H1.51502L1.50002 26.6667C1.4987 27.1048 1.57539 27.5389 1.72569 27.944C1.87598 28.3491 2.09691 28.7171 2.37575 29.027C2.65459 29.3368 2.98583 29.5823 3.35041 29.7493C3.71498 29.9163 4.10568 30.0015 4.50002 30H25.5C25.8944 30.0015 26.2851 29.9163 26.6496 29.7493C27.0142 29.5823 27.3454 29.3368 27.6243 29.027C27.9031 28.7171 28.1241 28.3491 28.2743 27.944C28.4246 27.5389 28.5013 27.1048 28.5 26.6667V20H18V21.6667H12ZM27 6.66667H20.985V3.33333L17.985 0H11.985L8.98502 3.33333V6.66667H3.00002C2.2051 6.6693 1.44341 7.02134 0.881319 7.64589C0.319224 8.27044 0.00239087 9.11676 1.67801e-05 10V15C-0.00130429 15.4382 0.0753912 15.8723 0.225687 16.2773C0.375984 16.6824 0.596911 17.0505 0.875751 17.3603C1.15459 17.6701 1.48583 17.9156 1.85041 18.0826C2.21498 18.2496 2.60568 18.3348 3.00002 18.3333H12V15H18V18.3333H27C27.7949 18.3307 28.5566 17.9787 29.1187 17.3541C29.6808 16.7296 29.9976 15.8832 30 15V10C29.9976 9.11676 29.6808 8.27044 29.1187 7.64589C28.5566 7.02134 27.7949 6.6693 27 6.66667ZM18 6.66667H12V3.33333H18V6.66667Z" fill="#6B17FE"/>
</svg>
