<svg width="1.2rem" height="1.2rem"  viewBox="0 0 30 31" fill="none" xmlns="http://www.w3.org/2000/svg">
<path d="M6.03333 13.2333C8.44932 17.9576 12.2924 21.8007 17.0167 24.2167L20.6833 20.55C20.9013 20.3316 21.176 20.1785 21.4763 20.1078C21.7767 20.0371 22.0908 20.0517 22.3833 20.15C24.3036 20.781 26.3121 21.1016 28.3333 21.1C28.7754 21.1 29.1993 21.2756 29.5118 21.5882C29.8244 21.9007 30 22.3246 30 22.7667V28.5833C30 29.0254 29.8244 29.4493 29.5118 29.7618C29.1993 30.0744 28.7754 30.25 28.3333 30.25C20.8189 30.25 13.6122 27.2649 8.29864 21.9514C2.98511 16.6378 0 9.43113 0 1.91667C0 1.47464 0.175595 1.05072 0.488155 0.738155C0.800716 0.425595 1.22464 0.25 1.66667 0.25H7.5C7.94203 0.25 8.36595 0.425595 8.67851 0.738155C8.99107 1.05072 9.16667 1.47464 9.16667 1.91667C9.16371 3.93799 9.48444 5.94676 10.1167 7.86667C10.211 8.16086 10.2221 8.47545 10.1485 8.77554C10.075 9.07562 9.91972 9.34945 9.7 9.56667L6.03333 13.2333Z" fill="#6B17FE"/>
</svg>
