<svg width="1.2rem" height="1.2rem" viewBox="0 0 30 31" fill="none" xmlns="http://www.w3.org/2000/svg">
<path d="M15 17.375C16.6688 17.375 18.3001 16.8802 19.6876 15.953C21.0752 15.0259 22.1566 13.7081 22.7952 12.1664C23.4338 10.6246 23.6009 8.92815 23.2754 7.29143C22.9498 5.65472 22.1462 4.1513 20.9662 2.97129C19.7862 1.79128 18.2828 0.987691 16.6461 0.662128C15.0094 0.336565 13.3129 0.503656 11.7711 1.14227C10.2294 1.78088 8.9116 2.86234 7.98448 4.24988C7.05735 5.63742 6.5625 7.26873 6.5625 8.93751C6.56316 11.1751 7.45232 13.3208 9.03452 14.903C10.6167 16.4852 12.7624 17.3743 15 17.375ZM22.5 19.25H19.2717C17.9323 19.8677 16.4749 20.1876 15 20.1876C13.5251 20.1876 12.0677 19.8677 10.7283 19.25H7.5C5.51088 19.25 3.60322 20.0402 2.1967 21.4467C0.790176 22.8532 0 24.7609 0 26.75L0 27.6875C0.000220895 28.4334 0.296608 29.1486 0.824006 29.676C1.3514 30.2034 2.06665 30.4998 2.8125 30.5H27.1875C27.9334 30.4998 28.6486 30.2034 29.176 29.676C29.7034 29.1486 29.9998 28.4334 30 27.6875V26.75C30 24.7609 29.2098 22.8532 27.8033 21.4467C26.3968 20.0402 24.4891 19.25 22.5 19.25Z" fill="#6B17FE"/>
</svg>
