<svg width="20" height="20" viewBox="0 0 20 20" fill="none" xmlns="http://www.w3.org/2000/svg">
<path d="M14.5001 0.769927C13.6418 0.774181 12.7948 0.965166 12.0177 1.32963C11.2406 1.69408 10.5521 2.22329 10 2.8805C9.4481 2.22342 8.7598 1.69429 7.9829 1.32984C7.206 0.965386 6.3591 0.77433 5.50098 0.769927C4.77306 0.761143 4.0508 0.898671 3.37704 1.17435C2.70329 1.45003 2.09178 1.85824 1.5788 2.37476C1.06582 2.89128 0.661824 3.50558 0.390784 4.18121C0.119745 4.85684 -0.0128131 5.58004 0.000975137 6.30787C0.000975137 10.1301 3.39963 13.1965 8.54787 17.9273L10 19.2298L11.4522 17.9222C16.6005 13.1913 19.9991 10.128 19.9991 6.30275C20.0122 5.57542 19.8792 4.85287 19.6079 4.1779C19.3366 3.50294 18.9326 2.8893 18.4198 2.37334C17.907 1.85739 17.2958 1.44962 16.6225 1.17419C15.9493 0.898771 15.2275 0.761299 14.5001 0.769927V0.769927ZM10.6154 16.6003L10.4103 16.7879L10 17.1633L9.58983 16.7879L9.38472 16.6003C7.28746 14.7815 5.31658 12.8219 3.48578 10.7352C2.33737 9.53414 1.64985 7.96624 1.54442 6.30787C1.53719 5.78103 1.63412 5.25795 1.82965 4.76868C2.02518 4.27942 2.31546 3.8336 2.6838 3.45686C3.05289 3.08698 3.49232 2.79478 3.97617 2.59751C4.46003 2.40023 4.97849 2.30188 5.50098 2.30825C6.13435 2.31476 6.75888 2.45764 7.33208 2.72716C7.90528 2.99668 8.41369 3.38652 8.82272 3.87015L10 5.269L11.1774 3.87015C11.5858 3.38551 12.0942 2.99497 12.6677 2.72537C13.2413 2.45576 13.8664 2.31346 14.5001 2.30825C15.023 2.30175 15.542 2.39963 16.0266 2.59615C16.5112 2.79267 16.9518 3.08389 17.3224 3.45276C17.6908 3.83031 17.9809 4.27687 18.1763 4.76682C18.3716 5.25677 18.4683 5.78047 18.4608 6.30787C18.3532 7.96741 17.6656 9.53631 16.5184 10.7403C14.6859 12.8252 12.7136 14.783 10.6154 16.6003V16.6003Z" fill="#CCCCCC"/>
</svg>
