<svg width="46" height="47" viewBox="0 0 46 47" fill="none" xmlns="http://www.w3.org/2000/svg">
<rect x="0.5" y="0.875" width="45" height="45" rx="5.5" fill="white" stroke="#6B17FE"/>
<g clip-path="url(#clip0_693_24)">
<path d="M14.2 16.775H12V32.175C12.0017 32.7579 12.2341 33.3165 12.6463 33.7287C13.0585 34.1409 13.6171 34.3733 14.2 34.375H29.6V32.175H14.2V16.775ZM31.8 12.375H18.6C18.0171 12.3767 17.4585 12.6091 17.0463 13.0213C16.6341 13.4335 16.4017 13.9921 16.4 14.575V27.775C16.4017 28.3579 16.6341 28.9165 17.0463 29.3287C17.4585 29.7409 18.0171 29.9733 18.6 29.975H31.8C32.3829 29.9733 32.9415 29.7409 33.3537 29.3287C33.7659 28.9165 33.9983 28.3579 34 27.775V14.575C33.9983 13.9921 33.7659 13.4335 33.3537 13.0213C32.9415 12.6091 32.3829 12.3767 31.8 12.375ZM30.7 22.275H26.3V26.675H24.1V22.275H19.7V20.075H24.1V15.675H26.3V20.075H30.7V22.275Z" fill="#6B17FE"/>
</g>
<defs>
<clipPath id="clip0_693_24">
<rect width="22" height="22" fill="white" transform="translate(12 12.375)"/>
</clipPath>
</defs>
</svg>
