<svg width="15" height="20" viewBox="0 0 15 20" fill="none" xmlns="http://www.w3.org/2000/svg">
<path d="M7.69995 0C5.84344 0 4.06296 0.737498 2.7502 2.05025C1.43745 3.36301 0.699951 5.14348 0.699951 7C0.699951 12.25 7.69995 20 7.69995 20C7.69995 20 14.7 12.25 14.7 7C14.7 5.14348 13.9625 3.36301 12.6497 2.05025C11.3369 0.737498 9.55647 0 7.69995 0V0ZM7.69995 9.5C7.2055 9.5 6.72215 9.35338 6.31103 9.07867C5.8999 8.80397 5.57947 8.41352 5.39025 7.95671C5.20103 7.49989 5.15152 6.99723 5.24799 6.51227C5.34445 6.02732 5.58255 5.58186 5.93218 5.23223C6.28182 4.8826 6.72727 4.6445 7.21222 4.54804C7.69718 4.45157 8.19984 4.50108 8.65666 4.6903C9.11348 4.87952 9.50392 5.19995 9.77863 5.61107C10.0533 6.0222 10.2 6.50555 10.2 7C10.2 7.3283 10.1353 7.65339 10.0097 7.95671C9.88401 8.26002 9.69986 8.53562 9.46772 8.76777C9.23557 8.99991 8.95997 9.18406 8.65666 9.3097C8.35335 9.43534 8.02826 9.5 7.69995 9.5V9.5Z" fill="#6B17FE"/>
</svg>
