<svg width="31" height="29" viewBox="0 0 31 29" fill="none" xmlns="http://www.w3.org/2000/svg">
<path d="M15.3149 28.5L13.1398 26.5152C5.41591 19.3442 0.316404 14.6901 0.316404 8.90042C0.295722 7.79645 0.494559 6.69953 0.901115 5.67475C1.30767 4.64997 1.91366 3.71821 2.68313 2.93476C3.4526 2.15132 4.36986 1.53216 5.38048 1.11402C6.39111 0.695876 7.4745 0.487277 8.56637 0.5006C9.85379 0.50766 11.1243 0.797934 12.2896 1.35127C13.455 1.90461 14.4873 2.70776 15.3149 3.70498C16.1427 2.70756 17.1753 1.90429 18.3409 1.35095C19.5066 0.7976 20.7774 0.507435 22.0651 0.5006C23.1568 0.487487 24.24 0.69624 25.2505 1.11448C26.2609 1.53271 27.178 2.15191 27.9473 2.93533C28.7166 3.71875 29.3224 4.65044 29.7289 5.67511C30.1354 6.69979 30.3342 7.79658 30.3135 8.90042C30.3135 14.6979 25.214 19.352 17.4901 26.5229L15.3149 28.5Z" fill="#6B17FE"/>
</svg>
