<svg width="31" height="28" viewBox="0 0 31 28" fill="none" xmlns="http://www.w3.org/2000/svg">
<path d="M17.5711 25.2122C17.4788 25.2979 17.386 25.3841 17.2928 25.4706L15.626 26.9856L13.9601 25.4655C13.9593 25.4648 13.9585 25.464 13.9577 25.4632C13.8642 25.3764 13.7711 25.29 13.6785 25.2041C9.92881 21.7232 6.87073 18.8844 4.72597 16.2196C2.53759 13.5005 1.37646 11.053 1.37646 8.40042H1.37659L1.37633 8.38637C1.35751 7.38166 1.53848 6.38354 1.90832 5.45132C2.27814 4.51912 2.82917 3.6721 3.52827 2.9603C4.22735 2.24852 5.06024 1.68646 5.97728 1.30704C6.89429 0.927629 7.87704 0.738461 8.86728 0.750561L8.87231 0.750589C10.0496 0.757045 11.2117 1.02248 12.278 1.52878C13.3443 2.03509 14.2896 2.77032 15.0479 3.68396L15.625 4.37934L16.2021 3.68396C16.9605 2.77013 17.9061 2.0348 18.9726 1.52848C20.0392 1.02217 21.2016 0.756839 22.3791 0.750607L22.3841 0.750546C23.3742 0.738654 24.3568 0.927962 25.2737 1.30746C26.1906 1.68696 27.0233 2.24905 27.7222 2.96081C28.4212 3.67259 28.9721 4.51955 29.3418 5.45166C29.7116 6.38378 29.8925 7.38178 29.8737 8.38637L29.8735 8.38637V8.40042C29.8735 11.0571 28.7122 13.5066 26.524 16.2265C24.3792 18.8923 21.321 21.7312 17.5711 25.2122Z" stroke="#CCCCCC" stroke-width="1.5"/>
</svg>
