<svg width="29" height="29" viewBox="0 0 29 29" fill="none" xmlns="http://www.w3.org/2000/svg">
<path d="M24.6875 13.375C24.6875 15.7484 23.9972 18.0685 22.7039 20.0418C21.4106 22.0152 19.5724 23.5533 17.4217 24.4616C15.271 25.3698 12.9044 25.6074 10.6213 25.1444C8.33811 24.6814 6.24089 23.5385 4.59483 21.8603C2.94876 20.1821 1.82777 18.0439 1.37362 15.7161C0.919475 13.3883 1.15256 10.9755 2.04341 8.7828C2.93425 6.59009 4.44285 4.71594 6.37842 3.39736C8.31399 2.07879 10.5896 1.375 12.9175 1.375C16.0391 1.375 19.0328 2.63928 21.2402 4.88972C23.4475 7.14016 24.6875 10.1924 24.6875 13.375Z" stroke="#BDBDBD" stroke-width="1.5" stroke-linejoin="round"/>
<path d="M27.6312 28.3746L21.2312 21.8496" stroke="#BDBDBD" stroke-width="1.5" stroke-linejoin="round"/>
</svg>
