<svg width="19" height="17" viewBox="0 0 19 17" fill="none" xmlns="http://www.w3.org/2000/svg">
<path d="M18 15.8463H1C1.59745 15.3653 2.08132 14.7569 2.41667 14.065C3.06267 12.8729 3.83333 10.7306 3.83333 7.29476C3.835 5.78327 4.43256 4.33417 5.4949 3.26539C6.55725 2.19661 7.99762 1.59543 9.5 1.59375C9.79918 1.59368 10.0979 1.61719 10.3934 1.66406C9.95222 2.29358 9.75415 3.06328 9.8363 3.82912C9.91846 4.59495 10.2752 5.30441 10.8398 5.82472C11.4043 6.34503 12.138 6.64051 12.9035 6.65587C13.669 6.67123 14.4138 6.4054 14.9986 5.90815C15.1106 6.36171 15.1671 6.82738 15.1667 7.29476C15.1667 10.7306 15.9373 12.8729 16.5833 14.065C16.9218 14.7549 17.4052 15.3627 18 15.8463Z" stroke="#CCCCCC" stroke-width="1.5" stroke-linecap="round" stroke-linejoin="round"/>
</svg>
